<svg width="196" height="196" viewBox="0 0 196 196" fill="none" xmlns="http://www.w3.org/2000/svg">
<path d="M46.16 84.128L118.491 38.4328V20.1599L46.16 65.8635V84.128Z" fill="#0E33F3"/>
<path d="M46.16 123.84L118.491 78.1449V63.3784L46.16 109.074V123.84Z" fill="#0E33F3"/>
<path d="M77.4955 84.1279L149.84 38.4328V23.0791L77.4955 68.7742V84.1279Z" fill="#0E33F3"/>
<path d="M149.84 62.791L77.4955 108.486V123.84L149.84 78.1447V62.791Z" fill="#0E33F3"/>
<path d="M26.0769 186.5V161.409H32.709V165.836H33.003C33.5257 164.366 34.3969 163.206 35.6166 162.357C36.8363 161.507 38.2956 161.082 39.9945 161.082C41.7151 161.082 43.1799 161.513 44.3887 162.373C45.5975 163.222 46.4033 164.377 46.8063 165.836H47.0676C47.5795 164.398 48.5051 163.25 49.8446 162.389C51.195 161.518 52.7904 161.082 54.6308 161.082C56.9722 161.082 58.8726 161.828 60.3318 163.32C61.802 164.801 62.5371 166.903 62.5371 169.626V186.5H55.5946V170.998C55.5946 169.604 55.2244 168.558 54.4838 167.862C53.7433 167.165 52.8176 166.816 51.7068 166.816C50.4436 166.816 49.458 167.219 48.7502 168.025C48.0423 168.82 47.6884 169.871 47.6884 171.178V186.5H40.9419V170.851C40.9419 169.62 40.588 168.64 39.8801 167.911C39.1832 167.181 38.263 166.816 37.1195 166.816C36.3463 166.816 35.6493 167.012 35.0286 167.404C34.4187 167.785 33.9341 168.324 33.5747 169.021C33.2154 169.707 33.0357 170.513 33.0357 171.439V186.5H26.0769ZM78.9105 186.99C76.3731 186.99 74.1788 186.451 72.3275 185.373C70.487 184.284 69.0659 182.77 68.064 180.832C67.0621 178.882 66.5611 176.623 66.5611 174.053C66.5611 171.461 67.0621 169.196 68.064 167.257C69.0659 165.308 70.487 163.794 72.3275 162.716C74.1788 161.627 76.3731 161.082 78.9105 161.082C81.448 161.082 83.6369 161.627 85.4773 162.716C87.3286 163.794 88.7552 165.308 89.7571 167.257C90.759 169.196 91.26 171.461 91.26 174.053C91.26 176.623 90.759 178.882 89.7571 180.832C88.7552 182.77 87.3286 184.284 85.4773 185.373C83.6369 186.451 81.448 186.99 78.9105 186.99ZM78.9432 181.599C80.0976 181.599 81.0614 181.273 81.8346 180.619C82.6078 179.955 83.1904 179.051 83.5824 177.908C83.9854 176.764 84.1868 175.463 84.1868 174.004C84.1868 172.544 83.9854 171.243 83.5824 170.099C83.1904 168.956 82.6078 168.052 81.8346 167.388C81.0614 166.723 80.0976 166.391 78.9432 166.391C77.778 166.391 76.7979 166.723 76.0029 167.388C75.2188 168.052 74.6253 168.956 74.2223 170.099C73.8303 171.243 73.6343 172.544 73.6343 174.004C73.6343 175.463 73.8303 176.764 74.2223 177.908C74.6253 179.051 75.2188 179.955 76.0029 180.619C76.7979 181.273 77.778 181.599 78.9432 181.599ZM102.284 171.994V186.5H95.3248V161.409H101.957V165.836H102.251C102.806 164.377 103.737 163.222 105.044 162.373C106.351 161.513 107.936 161.082 109.798 161.082C111.54 161.082 113.059 161.464 114.355 162.226C115.651 162.988 116.659 164.077 117.377 165.493C118.096 166.898 118.456 168.575 118.456 170.524V186.5H111.497V171.766C111.508 170.23 111.116 169.032 110.321 168.172C109.526 167.301 108.431 166.865 107.037 166.865C106.101 166.865 105.273 167.067 104.554 167.469C103.846 167.872 103.291 168.46 102.888 169.234C102.496 169.996 102.295 170.916 102.284 171.994ZM134.915 186.99C132.334 186.99 130.112 186.467 128.25 185.422C126.399 184.366 124.972 182.874 123.97 180.946C122.968 179.008 122.467 176.715 122.467 174.069C122.467 171.488 122.968 169.223 123.97 167.273C124.972 165.324 126.382 163.805 128.201 162.716C130.031 161.627 132.176 161.082 134.637 161.082C136.292 161.082 137.833 161.349 139.26 161.883C140.697 162.406 141.95 163.195 143.017 164.251C144.095 165.308 144.934 166.636 145.533 168.237C146.132 169.827 146.431 171.689 146.431 173.824V175.735H125.244V171.423H139.881C139.881 170.421 139.663 169.533 139.227 168.76C138.792 167.987 138.187 167.382 137.414 166.947C136.652 166.5 135.764 166.277 134.751 166.277C133.695 166.277 132.758 166.522 131.942 167.012C131.136 167.491 130.504 168.139 130.047 168.956C129.589 169.762 129.355 170.66 129.344 171.651V175.751C129.344 176.993 129.573 178.066 130.031 178.969C130.499 179.873 131.158 180.57 132.007 181.06C132.856 181.55 133.864 181.795 135.029 181.795C135.802 181.795 136.51 181.687 137.153 181.469C137.795 181.251 138.345 180.924 138.803 180.489C139.26 180.053 139.608 179.519 139.848 178.888L146.284 179.312C145.957 180.859 145.288 182.209 144.275 183.364C143.273 184.507 141.977 185.4 140.387 186.043C138.808 186.674 136.984 186.99 134.915 186.99ZM155.878 161.409L160.485 170.181L165.206 161.409H172.344L165.075 173.955L172.54 186.5H165.434L160.485 177.826L155.617 186.5H148.43L155.878 173.955L148.691 161.409H155.878Z" fill="#242D35"/>
</svg>
